<svg xmlns="http://www.w3.org/2000/svg" viewBox="0 0 2048 2048"><path d="M768 320q0 57-19 109t-53 93.5-81 70.5-103 41v780q56 12 103 41t81 70.5 53 93.5 19 109q0 66-25.5 124.5t-69 102T572 2023t-124 25-124.5-25-102-68.5-68.5-102-25-124.5q0-57 19-109t53-93.5 81-70.5 103-41V634q-56-12-103-41t-81-70.5-53-93.5-19-109q0-66 25-124t68.5-101.5 102-69T448 0t124 25.5 101.5 69 69 101.5T768 320zm-512 0q0 40 15 75t41 61 61 41 75 15 75-15 61-41 41-61 15-75-15-75-41-61-61-41-75-15-75 15-61 41-41 61-15 75zm384 1408q0-40-15-75t-41-61-61-41-75-15-75 15-61 41-41 61-15 75 15 75 41 61 61 41 75 15 75-15 61-41 41-61 15-75zm1024-314q56 12 103 41t81 70.5 53 93.5 19 109q0 66-25.5 124.5t-69 102T1724 2023t-124 25-124.5-25-102-68.5-68.5-102-25-124.5q0-57 19-109t53-93.5 81-70.5 103-41V576q0-40-15-75t-41-61-61-41-75-15h-166l163 163-90 90-318-317L1251 3l90 90-163 163h166q66 0 124 25.5t101.5 69 69 101.5 25.5 124v838zm-64 506q40 0 75-15t61-41 41-61 15-75-15-75-41-61-61-41-75-15-75 15-61 41-41 61-15 75 15 75 41 61 61 41 75 15z"/></svg>