<svg xmlns="http://www.w3.org/2000/svg" viewBox="0 0 2048 2048"><path d="M2048 0v64q0 182-32.5 340T1917 703t-166 268.5-234 248.5l-191 572h-302v-227q-138 81-279 156l-418-418q75-141 156-279H256V722l572-190q121-135 248.5-235T1345 131t299-98.5T1984 0h64zM558 896q29-46 58.5-91t61.5-89l-294 98v82h174zm211 666q51-29 102-57.5t102-57.5l-372-372q-29 51-57.5 102T486 1280zm563-192q-44 32-89 61.5t-91 58.5v174h82zm183-327q99-99 172.5-201.5t123.5-214 76.5-235T1919 129q-140 5-263.5 31.5t-235 76.5T1206 360.5 1003 532q-99 97-181 204.5T668 962l418 418q118-72 225-154.5t204-182.5zm-235-19q-53 0-99.5-20t-81.5-55-55-81.5-20-99.5 20-99.5 55-81.5 81.5-55 99.5-20 99.5 20 81.5 55 55 81.5 20 99.5-20 99.5-55 81.5-81.5 55-99.5 20zm0-384q-27 0-50 10t-40.5 27.5T1162 718t-10 50 10 50 27.5 40.5T1230 886t50 10 50-10 40.5-27.5T1398 818t10-50-10-50-27.5-40.5T1330 650t-50-10zM256 1536q53 0 99.5 20t81.5 55 55 81.5 20 99.5-20 99.5-55 81.5-81.5 55-99.5 20H0v-256q0-53 20-99.5t55-81.5 81.5-55 99.5-20zm0 384q27 0 50-10t40.5-27.5T374 1842t10-50-10-50-27.5-40.5T306 1674t-50-10-50 10-40.5 27.5T138 1742t-10 50v128h128z"/></svg>